<?xml version="1.0" encoding="iso-8859-1"?>
<!-- Generator: Adobe Illustrator 17.1.0, SVG Export Plug-In . SVG Version: 6.00 Build 0)  -->
<!DOCTYPE svg PUBLIC "-//W3C//DTD SVG 1.1//EN" "http://www.w3.org/Graphics/SVG/1.1/DTD/svg11.dtd">
<svg version="1.1" id="Capa_1" xmlns="http://www.w3.org/2000/svg" xmlns:xlink="http://www.w3.org/1999/xlink" x="0px" y="0px"
	 viewBox="0 0 224.787 224.787" style="enable-background:new 0 0 224.787 224.787;" xml:space="preserve">
<path d="M84.573,224.787c-1.963,0-3.924-0.406-5.776-1.217c-3.531-1.544-6.249-4.37-7.653-7.959l-4.163-10.634
	c-1.404-3.588-1.328-7.509,0.216-11.039c1.284-2.938,3.457-5.313,6.218-6.837c-0.048-0.124-0.095-0.25-0.141-0.374
	c-1.934,1.084-4.634,2.107-7.632,1.851c-3.478-0.302-6.531-2.193-9.077-5.623c-5.546-7.468-2.681-20.854,6.386-29.84
	c5.096-5.05,13.029-8.361,17.691-9.992c-8.941-8.39-14.523-20.23-14.523-33.333c0-12.771,5.306-24.803,14.663-33.489
	c-3.705-3.162-10.29-10.788-18.188-28.716C54.562,29.355,55.34,14.12,56.518,6.661c0.386-2.438,1.867-4.48,4.064-5.603
	c2.19-1.12,4.707-1.123,6.903-0.009c6.752,3.43,19.432,12.145,28.484,31.99c5.793,12.7,6.461,25.788,6.403,31.88
	c6.596-1.484,13.565-1.541,20.24-0.121c-0.168-6.496,0.337-18.854,5.336-30.894c8.363-20.143,20.736-29.29,27.367-32.949
	c2.157-1.19,4.671-1.271,6.899-0.229c2.235,1.047,3.786,3.037,4.255,5.462c1.434,7.414,2.734,22.614-4.664,41.106
	c-7.109,17.768-13.343,25.674-16.932,29.07c9.312,8.684,14.601,20.719,14.601,33.425c0,13.211-5.674,25.139-14.746,33.54
	c4.718,1.695,12.219,4.94,17.107,9.785c9.066,8.985,11.931,22.372,6.386,29.84c-2.546,3.43-5.601,5.321-9.078,5.623
	c-3.102,0.264-5.862-0.831-7.806-1.95c-0.059,0.158-0.117,0.316-0.178,0.474c2.761,1.523,4.933,3.898,6.218,6.837
	c1.544,3.53,1.62,7.451,0.216,11.039l-4.163,10.634c-1.404,3.589-4.122,6.415-7.653,7.959c-3.531,1.545-7.452,1.621-11.039,0.216
	l-0.503-0.196c-3.592-1.406-6.418-4.124-7.962-7.655c-0.571-1.306-0.941-2.665-1.11-4.041c-4.145,1.354-8.46,2.037-12.877,2.037
	c-4.42,0-8.738-0.685-12.885-2.04c-0.626,5.095-3.954,9.699-9.061,11.698l-0.509,0.198C88.13,224.454,86.351,224.787,84.573,224.787
	z M77.485,190.743l-0.506,0.198c-2.346,0.917-4.192,2.693-5.201,5s-1.059,4.869-0.141,7.214l4.163,10.634
	c0.918,2.345,2.693,4.191,5,5.2s4.869,1.06,7.214,0.141l0.509-0.198c2.342-0.917,4.188-2.693,5.197-5
	c0.676-1.545,0.921-3.204,0.734-4.836c-0.061-0.164-0.104-0.334-0.129-0.511c-0.069-0.491-0.17-0.965-0.301-1.416
	c-0.051-0.15-0.105-0.302-0.164-0.451l-4.163-10.634c-0.172-0.438-0.373-0.857-0.601-1.254c-1.871-3.163-5.336-4.945-8.941-4.706
	C79.261,190.197,78.363,190.399,77.485,190.743L77.485,190.743z M130.121,209.096c-0.187,1.632,0.059,3.291,0.734,4.836
	c1.009,2.307,2.855,4.083,5.2,5.001l0.503,0.196c2.349,0.918,4.911,0.869,7.217-0.14c2.307-1.009,4.083-2.855,5-5.2l4.163-10.634
	c0.918-2.345,0.868-4.907-0.141-7.214s-2.855-4.083-5.2-5l-0.507-0.198c-0.79-0.31-1.604-0.509-2.426-0.599
	c-3.717-0.349-7.323,1.476-9.229,4.756c-0.211,0.378-0.398,0.773-0.559,1.184l0,0l-4.163,10.634
	c-0.059,0.15-0.113,0.301-0.164,0.452c-0.131,0.45-0.231,0.924-0.301,1.415C130.225,208.762,130.182,208.932,130.121,209.096z
	 M99.026,206.446c4.229,1.649,8.683,2.484,13.262,2.484s9.033-0.835,13.262-2.484c0.069-0.26,0.146-0.52,0.231-0.777
	c0.112-0.375,0.237-0.741,0.377-1.097l3.965-10.128c0.288-0.736,0.628-1.436,1.013-2.096c1.526-2.679,3.863-4.787,6.74-6.046
	c2.262-0.988,4.68-1.379,7.078-1.156c0.507,0.042,1.015,0.11,1.523,0.207c1.585-4.152,2.388-8.516,2.388-13
	c0-3.189-0.404-6.313-1.188-9.314c-0.537,3.18-1.813,6.55-4.197,9.969c-10.221,14.654-28.854,14.316-30.768,14.239
	c-1.904,0.077-20.543,0.42-30.769-14.24c-2.9-4.158-4.16-8.244-4.446-12.004c-1.176,3.614-1.785,7.432-1.785,11.351
	c0,3.306,0.437,6.546,1.3,9.684c0.007,0.022,0.013,0.045,0.02,0.067c0.304,1.096,0.66,2.18,1.068,3.249
	c0.803-0.152,1.607-0.236,2.405-0.254c5.133-0.161,10.117,2.507,12.813,7.042c0.437,0.721,0.817,1.489,1.136,2.303l3.965,10.128
	c0.141,0.359,0.268,0.729,0.38,1.107C98.881,205.934,98.957,206.19,99.026,206.446z M152.819,181.648
	c1.222,0.868,3.479,2.172,5.921,1.945c1.979-0.18,3.82-1.398,5.47-3.619c3.607-4.86,2.102-15.386-5.892-23.309
	c-3.018-2.99-7.371-5.337-11.173-6.993c4.376,6.684,6.72,14.49,6.72,22.681C153.865,175.513,153.514,178.619,152.819,181.648z
	 M77.346,149.803c-3.73,1.648-7.937,3.95-10.876,6.863c-7.994,7.924-9.5,18.449-5.892,23.309c1.649,2.221,3.489,3.439,5.47,3.619
	c2.305,0.217,4.481-0.957,5.738-1.818c-0.715-3.069-1.075-6.219-1.075-9.422C70.711,164.217,73.025,156.458,77.346,149.803z
	 M112.712,182.244c0.044,0,0.089,0.001,0.132,0.004c0.168,0.01,17.591,0.722,26.533-12.101c0-0.001,0-0.001,0-0.001
	c6.342-9.092,2.872-17.746,0.507-21.79c-0.126-0.144-0.252-0.285-0.379-0.428c-1.468,0.949-3.646,2.176-6.613,3.398
	c-6.086,2.874-12.897,4.484-20.083,4.486c-0.062,0-0.103,0-0.122,0c-0.01,0-0.022,0-0.065,0c-0.041,0-0.102,0-0.18-0.001
	c-3.061-0.022-6.05-0.337-8.945-0.917c-6.352-1.128-12.343-3.486-17.708-6.989c-2.378,3.813-6.383,12.724,0.256,22.24
	c8.94,12.82,26.361,12.107,26.539,12.101C112.625,182.245,112.668,182.244,112.712,182.244z M109.426,150.574
	c2.754,0.173,5.568,0.094,8.286-0.232c2.41-0.367,5.578-1.021,9.256-2.184c0.348-0.109,0.687-0.221,1.017-0.332
	c3.574-1.359,6.951-3.197,10.06-5.488c0.138-0.102,0.282-0.188,0.433-0.257c9.734-7.517,15.999-19.197,15.999-32.291
	c0-12.115-5.407-23.55-14.835-31.373c-0.784-0.65-1.095-1.712-0.785-2.683l0.149-0.469c0.166-0.521,0.498-0.974,0.945-1.287
	c1.891-1.327,8.719-7.308,17.214-28.541c6.924-17.306,5.728-31.424,4.398-38.3c-0.162-0.836-0.696-1.522-1.466-1.883
	c-0.764-0.356-1.626-0.33-2.364,0.079c-6.059,3.344-17.386,11.751-25.166,30.489c-5.703,13.735-5.112,27.985-4.795,32.025
	c0.064,0.818-0.277,1.616-0.914,2.134c-0.636,0.52-1.485,0.694-2.275,0.462c-7.884-2.287-16.355-2.212-24.109,0.146
	c-0.795,0.241-1.654,0.072-2.299-0.448c-0.645-0.521-0.989-1.329-0.92-2.155c0.015-0.17,1.346-17.133-5.833-32.872
	C83,16.654,71.392,8.642,65.222,5.509c-0.751-0.382-1.613-0.381-2.366,0.003c-0.756,0.386-1.266,1.09-1.398,1.93
	c-1.093,6.917-1.804,21.068,5.712,38.128c10.721,24.336,18.588,28.18,18.666,28.215c0.828,0.328,1.388,1.057,1.521,1.937
	c0.134,0.88-0.241,1.751-0.935,2.31c-9.725,7.834-15.303,19.41-15.303,31.76c0,16.643,10.12,31.002,24.622,37.43
	c0.839,0.316,1.743,0.632,2.712,0.938C103.087,149.623,106.912,150.28,109.426,150.574z M120.245,143.384
	c-0.64,0-1.279-0.244-1.768-0.732l-6.825-6.825l-6.763,6.762c-0.977,0.977-2.559,0.977-3.535,0s-0.977-2.56,0-3.535l7.798-7.797
	v-9.727c-3.931-0.917-6.82-3.917-6.82-7.467c0-4.276,4.195-7.756,9.352-7.756s9.352,3.479,9.352,7.756
	c0,3.568-2.92,6.581-6.883,7.481v9.712l7.86,7.86c0.977,0.977,0.977,2.559,0,3.535C121.525,143.14,120.885,143.384,120.245,143.384z
	 M111.684,111.307c-2.564,0-4.352,1.452-4.352,2.756s1.787,2.756,4.352,2.756s4.352-1.452,4.352-2.756
	S114.248,111.307,111.684,111.307z M130.031,105.229c-4.087,0-7.411-3.324-7.411-7.411s3.324-7.411,7.411-7.411
	c4.087,0,7.411,3.324,7.411,7.411S134.118,105.229,130.031,105.229z M130.031,95.407c-1.329,0-2.411,1.082-2.411,2.411
	s1.082,2.411,2.411,2.411s2.411-1.082,2.411-2.411S131.361,95.407,130.031,95.407z M93.335,105.229
	c-4.087,0-7.411-3.324-7.411-7.411s3.324-7.411,7.411-7.411s7.411,3.324,7.411,7.411S97.422,105.229,93.335,105.229z M93.335,95.407
	c-1.329,0-2.411,1.082-2.411,2.411s1.082,2.411,2.411,2.411s2.411-1.082,2.411-2.411S94.664,95.407,93.335,95.407z M131.914,73.91
	c-0.021,0-0.041,0-0.063-0.001c-1.38-0.033-2.472-1.18-2.438-2.561c0.019-0.776,0.553-19.204,8.018-35.322
	c0.581-1.253,2.067-1.797,3.319-1.218c1.253,0.58,1.798,2.066,1.218,3.319c-7.034,15.187-7.552,33.164-7.557,33.344
	C134.379,72.831,133.267,73.91,131.914,73.91z M92.695,73.91c-1.352,0-2.464-1.079-2.498-2.438
	c-0.005-0.181-0.538-18.19-7.557-33.345c-0.58-1.253-0.035-2.739,1.218-3.319c1.254-0.579,2.739-0.035,3.319,1.218
	c7.465,16.118,7.999,34.546,8.018,35.322c0.034,1.38-1.057,2.525-2.437,2.561C92.737,73.909,92.715,73.91,92.695,73.91z"/>
<g>
</g>
<g>
</g>
<g>
</g>
<g>
</g>
<g>
</g>
<g>
</g>
<g>
</g>
<g>
</g>
<g>
</g>
<g>
</g>
<g>
</g>
<g>
</g>
<g>
</g>
<g>
</g>
<g>
</g>
</svg>
